PathFileType	4	(X/Y/Z)	Patient4_TMGait_0pt3_03_right_04.trc.trc
DataRate	CameraRate	NumFrames	NumMarkers	Units	OrigDataRate	OrigDataStartFrame	OrigNumFrames
52.434456928839	52.434456928839	5	33	mm	52.434456928839	18	       141
Frame#	Time	Sacral			L.Shoulder			Chest			R.Shoulder			Neck			R.ASIS			L.ASIS			R.Thigh.Superior			R.Thigh.Lateral			R.Thigh.Inferior			R.Patella			L.Thigh.Superior			L.Thigh.Lateral			L.Thigh.Inferior			L.Patella			L.Shank.Superior			L.Shank.Lateral			L.Shank.Inferior			R.Shank.Superior			R.Shank.Lateral			R.Shank.Inferior			R.Heel			R.Midfoot.Superior			R.Midfoot.Lateral			R.Toe			L.Heel			L.Midfoot.Lateral			L.Midfoot.Superior			L.Toe			L.Elbow			L.Wrist			R.Elbow			R.Wrist			
		X1	Y1	Z1	X2	Y2	Z2	X3	Y3	Z3	X4	Y4	Z4	X5	Y5	Z5	X6	Y6	Z6	X7	Y7	Z7	X8	Y8	Z8	X9	Y9	Z9	X10	Y10	Z10	X11	Y11	Z11	X12	Y12	Z12	X13	Y13	Z13	X14	Y14	Z14	X15	Y15	Z15	X16	Y16	Z16	X17	Y17	Z17	X18	Y18	Z18	X19	Y19	Z19	X20	Y20	Z20	X21	Y21	Z21	X22	Y22	Z22	X23	Y23	Z23	X24	Y24	Z24	X25	Y25	Z25	X26	Y26	Z26	X27	Y27	Z27	X28	Y28	Z28	X29	Y29	Z29	X30	Y30	Z30	X31	Y31	Z31	X32	Y32	Z32	X33	Y33	Z33	

18	7.764214285714	731.598346172141	1003.011563078041	407.433255442288	948.468344787188	1433.041972074793	261.479807783902	1010.104918753433	1364.813449914437	441.649134525345	890.519672825175	1438.626984634655	591.745071145503	890.787694501393	1493.412441939631	413.181899700081	937.035471270662	944.970132732142	566.541660541808	971.647732777931	959.002536278316	293.605913332688	1015.143802856521	763.099496436865	545.719888392668	958.654934541425	646.536942654968	615.302821418265	1049.755575817876	604.505106600736	540.962791651101	1077.966472645640	520.273449623328	563.081617981422	988.549735367493	733.579865923516	335.793365808090	895.099680990077	623.306307321742	264.825607568037	955.655343122766	540.886250772362	342.985129321760	945.075401452546	472.054032097387	352.777206486811	909.267851327032	402.710067991383	342.446522304566	809.466922259752	298.124368743260	289.739777507233	839.147667143323	184.485980555943	366.972917910594	1053.410274203008	430.975094425350	574.690457835639	985.932622095415	324.826318404324	638.900901321482	1049.700869737731	230.801436064845	593.117108251557	941.717906748024	48.557273295140	566.620456852421	1106.295136334720	114.857610752898	609.227425019274	1025.959307418759	40.705739692115	639.494433077042	1230.451986683053	75.303772475119	634.699748028135	695.073390139709	38.498466243910	409.373035390773	767.380157853267	35.406576821846	327.298490862222	852.535762020349	95.401557740125	354.536870324969	979.406563430451	42.641357105887	321.724032981199	1097.463648746132	1144.871290425244	112.319394539672	1354.337798852441	1147.883218645932	150.139400760606	719.396115476183	1134.389133723753	675.581832567152	687.698753973125	876.338586945044	692.438235648934	
19	7.783285714286	733.489295225107	1002.780038612099	409.801301246947	951.862034263311	1432.495263596697	265.333042442388	1012.006920520661	1364.290607104341	445.918526241552	891.706871724016	1438.754592799685	595.190601339472	893.075085331851	1492.923520617431	416.695535024280	937.798597902532	944.200304984065	570.170521186776	973.989784641188	958.350885989532	297.379654354062	1014.225654452319	760.919964574725	550.559419666344	955.381545288452	644.372685866447	618.580228100891	1046.928005983383	602.277173053037	544.985078775624	1074.033187767719	519.641245015931	565.667985101635	987.199391273913	732.145067091671	338.468804105616	891.913047049329	623.651660222090	266.165520309336	950.655482660099	539.975482589147	343.910182185727	938.881470435948	471.620218731800	353.451429423409	903.521208926471	402.691230895082	342.936154023856	803.658487732253	298.253951055106	289.969126668515	833.288392389912	184.464038479283	367.053479556353	1052.711224011957	430.072411262221	577.050687590309	989.006715920952	321.563424747652	641.617037862017	1055.446648412386	229.562012510631	595.094435924720	952.129123248318	45.510626838503	569.283217307998	1116.094997501970	113.953848395373	610.090840002512	1037.329348778458	38.512065148802	640.986364316635	1241.277598317618	76.146401659402	633.883720889514	689.252015442804	38.358125811949	409.376470684453	761.552341522949	35.291227306025	327.298353976282	846.688494171660	95.331728768446	354.536804135698	973.596548598104	42.602478528896	321.757601837633	1102.148136782191	1145.826889225873	116.025708175447	1358.613467327881	1156.067807224250	154.061464449455	717.451731882518	1136.138447855261	675.355514546282	683.229741280511	878.094493628962	689.953024519644	
20	7.802357142857	735.580586561432	1002.158421518489	412.629381039438	955.069373624767	1431.608063152994	269.440907979199	1014.026723120282	1363.467162715720	450.345510419851	893.189963357911	1438.453619706904	599.015833693486	895.404579955225	1492.117980598119	420.531300747130	938.984450053057	943.023568481037	573.945664504927	976.449385243546	957.446994871167	301.290565685846	1014.009478529800	758.597210481338	555.236282953524	952.982638782686	641.928681710540	621.475655040050	1045.051341615239	599.985351920128	548.614915741824	1070.876156923363	518.443485742293	567.817988927444	986.318198555855	730.566537451812	341.122987589543	889.177053906835	623.809402540140	267.739653118005	946.288222436478	538.943704016445	344.973458185413	933.397917697940	471.006989549875	354.291599880466	898.320408607303	402.493346929673	343.595634557100	798.194642493187	298.397943042672	290.321438005608	827.602784839733	184.360527693268	367.175747233896	1052.035233084094	428.614556898245	578.958989507339	991.029953278745	318.538869513336	643.593739596186	1059.151051117721	228.090885534060	596.352797907087	958.710226446108	43.717699269145	570.896458303450	1122.546747057561	112.715187974820	610.319925522296	1044.431226820680	37.177726732014	641.857534273382	1248.017001744093	75.407641020634	633.079456959659	683.430327422969	38.219237981218	409.368796776531	755.735315784004	35.172992630155	327.297622063552	840.855537562926	95.246533923432	354.544495306521	967.802144747854	42.513815358142	321.784598903297	1106.366374501560	1146.078370681253	120.104772021365	1362.353973881478	1162.987702342312	158.015233861957	717.078549943328	1136.695775671783	675.786211713887	680.739147297646	878.583992039909	688.215465356290	
21	7.821428571429	737.869055758960	1001.258567573573	415.881318097121	958.128750693077	1430.484817626331	273.816042531029	1016.194455475577	1362.424096104391	454.946378866786	894.971373729521	1437.784395909592	603.227961868883	897.794115002838	1491.078508537517	424.706261439788	940.590054466833	941.541883823860	577.853011226696	979.029240753469	956.361509584349	305.326561130627	1014.511799940334	756.244149344723	559.656583893718	951.529498680112	639.353191388586	623.980536884685	1044.160192243552	597.736405727710	551.812680984847	1068.611247732707	516.792717407356	569.549290831619	985.934772399807	728.883364313794	343.756646362468	886.922597142556	623.805568251055	269.568738796527	942.605599998490	537.815685917780	346.204822462591	928.686959435613	470.223840242542	355.325113554947	893.699971482091	402.135396220032	344.443626420974	793.098252128694	298.595198909481	290.811952542093	822.108248179663	184.202320377453	367.340577389841	1051.508910118586	426.691014776360	580.426079144734	992.174594424886	315.718994753984	644.909991177960	1061.036469656855	226.320501302332	596.922058756221	961.741181775222	42.817678130705	571.559131795945	1125.916720004793	111.093137267350	609.951388452543	1047.611755016038	36.469105088521	642.201829188373	1251.094712636255	73.225080916908	632.311966765196	677.615875333471	38.121006482424	409.333721975474	749.940382313495	35.073637589020	327.291068798093	835.054082140489	95.160687644069	354.549142016331	962.030769480903	42.366151162808	321.800325625253	1110.087004140490	1145.682007589316	124.531381774413	1365.568691941164	1168.607540697442	161.977135337825	718.097122401355	1136.199438521346	676.989403380337	680.058892279098	877.979697766034	687.433617179449	
22	7.840500000000	740.334905186651	1000.216139708357	419.513829712112	961.094468234527	1429.242151812008	278.460031168337	1018.540562051601	1361.253163128628	459.730839580581	897.056900461010	1436.840810323929	607.814443724309	900.268113784671	1489.905109848303	429.220198168114	942.589235353897	939.883283956506	581.879612547062	981.711239737371	955.179250527296	309.478232672942	1015.709642820082	753.987049244971	563.744401676681	951.063091826608	636.818160547505	626.135971650081	1044.234606062644	595.639629872091	554.566251183779	1067.303388887199	514.834516794249	570.907390842571	986.038273873419	727.152317867825	346.386151288169	885.158796301132	623.682135261692	271.665051266060	939.629743507599	536.631564343586	347.632182890515	924.778913226458	469.295472174965	356.569954856839	889.671788928005	401.652178122841	345.490842486149	788.378853981934	298.893387906298	291.452446799956	816.819035054305	184.029447712635	367.546422317756	1051.242657075588	424.440523462201	581.493982304545	992.673268256312	313.113301377075	645.702326537909	1061.407460248778	224.268595501702	596.885538346362	961.697368631093	42.497413269912	571.454936012478	1126.609023518080	109.148215336347	609.074331274361	1047.439929614433	36.194807016026	642.143110556138	1251.091562140931	69.919003573584	631.575953942950	671.817415739574	38.119149411058	409.255222300010	744.179991709908	35.025042560447	327.273022126918	829.305429506478	95.094188469218	354.538558329865	956.289105733141	42.152653459291	321.800523690477	1113.294882890499	1144.713343914630	129.277065154147	1368.282761665809	1172.914834524288	165.927392353577	720.305276121640	1134.859622648901	679.043755415557	681.011744912256	876.516321256446	687.782964932769	
